# Blender3D v245 OBJ File: soccerbottorso.blend
# www.blender3d.org
mtllib soccerbottorso.mtl
o Cube
v 1.000000 -1.000000 -1.000000
v 1.000000 -1.000000 1.000000
v -1.000000 -1.000000 1.000000
v -1.000000 -1.000000 -1.000000
v 1.000000 1.000000 -1.000000
v 1.000000 1.000000 1.000000
v -1.000000 1.000000 1.000000
v -1.000000 1.000000 -1.000000

vt 0.000000 0.000000 0.0
vt 0.000000 1.00000 0.0
vt 1.000000 0.000000 0.0
vt 1.000000 1.000000 0.0


vn 0.000000 0.000000 -1.000000
vn -1.000000 0.000000 0.000000
vn 0.000000 0.000000 1.000000
vn -0.000000 0.000000 1.000000
vn 1.000000 0.000000 0.000000
vn 1.000000 0.000000 0.000001
vn 0.000000 1.000000 0.000000
vn 0.000000 -1.000000 0.000000

usemtl matNum
##f v1/vt1/vn1 v2/vt2/vn2 v3/vt3/vn3 ....

s on
#superior
f 3/4/4 6/1/4 7/3/4
f 6/1/3 3/4/3 2/2/3
#adelante
f 5/1/7 8/3/7 6/2/7
f 8/3/7 7/4/7 6/2/7
#atras
f 1/3/8 2/4/8 3/2/8
f 1/3/8 3/2/8 4/1/8
usemtl matTeam
#superior
f 3/4/4 6/1/4 7/3/4
f 6/1/3 3/4/3 2/2/3
#adelante
f 5/1/7 8/3/7 6/2/7
f 8/3/7 7/4/7 6/2/7
#atras
f 1/3/8 2/4/8 3/2/8
f 1/3/8 3/2/8 4/1/8
#abajo
f 5/4/1 4/1/1 8/2/1
f 5/1/1 1/2/1 4/3/1
#derecha
f 1/3/5 5/4/5 2/1/5
f 5/2/6 6/3/6 2/4/6

#izquierda
f 3/3/2 7/4/2 8/1/2
f 3/2/2 8/3/2 4/4/2
